<?xml version="1.0" encoding="utf-8"?>
<!-- Generator: Adobe Illustrator 21.1.0, SVG Export Plug-In . SVG Version: 6.00 Build 0)  -->
<svg version="1.1" id="Layer_1" xmlns="http://www.w3.org/2000/svg" xmlns:xlink="http://www.w3.org/1999/xlink" x="0px" y="0px"
	 viewBox="0 0 180 250" style="enable-background:new 0 0 180 250;" xml:space="preserve">
<style type="text/css">
	.st0{fill:#FFFFFF;}
	.st1{fill:#BCBEC0;}
</style>
<g>
	<path class="st0" d="M90,246.5c-2.3,0-4.2-1.1-5.4-3L17.7,138.7C2.2,114.5-0.8,83.9,9.6,56.9C19.2,32,39,13.8,64,7
		c8.4-2.3,17.2-3.5,26-3.5c8.8,0,17.6,1.2,26,3.5c25,6.8,44.8,25,54.4,50c10.4,27,7.4,57.5-8.1,81.8L95.4,243.5
		C94.2,245.4,92.3,246.5,90,246.5z"/>
	<path class="st1" d="M90,7c8.5,0,17,1.1,25.1,3.4c23.9,6.5,42.8,24,52,47.8c10,25.9,7.1,55.3-7.8,78.7L92.5,241.7
		c-0.7,1.2-1.9,1.3-2.5,1.3s-1.7-0.2-2.5-1.3L20.6,136.9C5.8,113.5,2.9,84.1,12.9,58.2c9.2-23.9,28.2-41.3,52-47.8
		C73,8.1,81.5,7,90,7 M90,0c-9.3,0-18.4,1.3-26.9,3.6c-58,15.9-80.5,86.6-48.3,137l66.9,104.8c1.9,3.1,5.2,4.6,8.4,4.6
		s6.4-1.5,8.4-4.6l66.9-104.8c32.2-50.4,9.7-121.1-48.3-137C108.4,1.3,99.3,0,90,0L90,0z"/>
</g>
</svg>
